<svg xmlns="http://www.w3.org/2000/svg" viewBox="0 0 80 45" role="img" aria-labelledby="title desc"><title id="title">WAVEX</title><desc id="desc">Official WAVEX wordmark</desc><defs><linearGradient id="g1" x1="0" y1="0" x2="0" y2="1"><stop offset="0" stop-color="#fff"/><stop offset="1" stop-color="#8a8a8a"/></linearGradient></defs><g transform="translate(0 0)"><path fill="url(#g1)" d="M10.36 25.94l2.78-8.89h2.14l2.78 8.91 2.85-8.91h1.73l-3.48 10.91h-2.15l-2.83-8.82-2.84 8.82H9.19L5.72 17.05h1.81l2.83 8.89zm25.57 2.01h-1.87l-1.4-2.73H26l-1.4 2.73h-1.79l5.53-10.91h2.03l5.56 10.91zm5.83-1.59 4.43-9.32H48l-5.2 10.91h-2.08L35.5 17.04h1.85l4.41 9.32zm18.61-7.83h-7.6v3.2h7.12l-.59 1.45h-6.53v3.31h8.04v1.47h-9.74V17.05h9.3v1.48zM26.7 23.77h5.29l-2.64-5.19-2.65 5.19z"/><polygon fill="url(#g1)" points="69.45,22.47 74.28,27.95 72.13,27.95 68.19,23.5 64.35,27.95 62.32,27.95 67.13,22.3 62.51,17.05 64.57,17.05"/><polygon fill="#F6921E" points="70.53,21.33 66.84,17.05 74.19,17.05"/></g></svg>